<svg width="122" height="122" viewBox="0 0 122 122" fill="none" xmlns="http://www.w3.org/2000/svg">
<path d="M61.5955 0C77.7555 0.261462 93.1498 6.93818 104.392 18.5613C115.634 30.1845 121.803 45.802 121.542 61.9782C121.281 78.1544 114.611 93.5642 102.999 104.818C91.3876 116.071 75.7858 122.246 59.6258 121.985C51.5815 121.862 43.6425 120.134 36.2732 116.903C28.9038 113.672 22.2522 109.002 16.7073 103.167C11.1624 97.3318 6.83559 90.4484 3.97998 82.9195C1.12436 75.3905 -0.202731 67.3672 0.0763327 59.3187C0.79398 27.1909 26.4155 0.122275 61.5955 0Z" fill="#F7F2EB"/>
<path d="M33.592 65.5242C39.4553 71.6379 45.3644 76.7429 53.4418 78.3019C56.3887 78.8675 57.1522 80.1513 55.5184 82.7803C53.9915 85.1646 52.7852 87.7171 51.243 90.0403C49.7009 92.3636 48.632 95.451 45.1354 95.0078C42.1732 94.6257 41.2876 91.9509 40.7074 89.5207C39.7302 85.4397 37.7604 83.4069 33.4087 84.752C30.6756 85.5926 27.8508 86.6166 25.9269 83.3764C24.4 80.7322 26.1101 78.5465 27.2706 76.422C29.0876 72.8913 31.2253 69.4828 33.592 65.5242Z" fill="#9CBDDE"/>
<path d="M87.3239 84.7214C83.5524 83.0707 82.1935 85.6232 80.9414 88.8787C79.9947 91.3854 79.5672 94.7021 75.979 94.9925C71.9021 95.3287 71.3982 91.5076 69.5201 89.1997C63.9469 82.4287 64.0538 78.1949 73.8718 76.5442C77.4753 75.9329 80.4986 73.2581 83.3234 70.675C85.0488 69.1466 87.3697 64.7294 89.7517 68.9785C92.3169 73.5638 97.9512 77.66 95.2791 83.8502C93.9812 86.8612 90.4082 85.7301 87.3239 84.7214Z" fill="#9CBDDE"/>
<path d="M60.9236 24.9288C45.0743 25.0205 33.195 36.9729 33.592 52.4407C33.8668 63.6901 47.4716 74.5725 61.2137 74.5573C75.3682 74.5573 88.5454 63.2621 88.5607 51.1569C88.5607 36.4227 76.3454 24.8524 60.9236 24.9288ZM58.3279 64.76C56.5772 64.825 54.8574 64.2853 53.457 63.2315C53.1527 63.0046 52.9058 62.7094 52.7361 62.3696C52.5664 62.0298 52.4786 61.655 52.4798 61.2751C52.5138 60.8524 52.6328 60.4409 52.8296 60.0653C53.0264 59.6897 53.2969 59.3578 53.625 59.0895C54.2358 58.6309 54.6938 58.4934 55.2588 58.9977C56.404 60.0065 58.3126 62.1769 60.9084 62.1769C63.0308 62.1769 64.6646 60.3122 64.6646 55.7727C64.6646 51.2333 61.8398 49.659 59.3509 49.659C58.56 49.671 57.7743 49.7893 57.0147 50.0105L56.6178 48.3292C60.206 46.9231 62.8628 45.1501 62.8628 42.2155C62.8628 39.2809 61.0763 37.7524 59.2288 37.7524C57.0606 37.7524 55.5947 39.1739 54.0373 41.3443L52.9684 40.1674L55.0603 37.1105C55.7714 36.1614 56.6936 35.391 57.7537 34.8604C58.8138 34.3299 59.9827 34.0536 61.1679 34.0536C62.0566 33.9775 62.9514 34.0868 63.7957 34.3747C64.6399 34.6627 65.4153 35.1229 66.0726 35.7263C66.73 36.3298 67.2551 37.0632 67.6146 37.8803C67.9741 38.6974 68.1602 39.5803 68.1612 40.4731C68.1664 41.1244 68.0329 41.7693 67.7696 42.3649C67.5063 42.9605 67.1193 43.4932 66.6343 43.9273C65.6399 44.8156 64.5608 45.604 63.4125 46.2811C67.6268 47.1523 70.192 50.1481 70.192 53.6482C70.2378 61.3974 61.0763 64.76 58.3279 64.76Z" fill="#9CBDDE"/>
</svg>
