<svg width="122" height="122" viewBox="0 0 122 122" fill="none" xmlns="http://www.w3.org/2000/svg">
<path d="M60.8473 122C44.6853 121.856 29.2423 115.291 17.9157 103.75C6.58911 92.2084 0.306651 76.6356 0.450412 60.4574C0.594173 44.2792 7.15238 28.8208 18.6823 17.4828C30.2122 6.14485 45.7694 -0.143904 61.9314 1.72132e-06C69.984 0.0619489 77.9433 1.73137 85.3434 4.91054C92.7435 8.0897 99.4356 12.7147 105.028 18.5148C110.62 24.3149 115.001 31.1735 117.912 38.689C120.824 46.2046 122.208 54.2261 121.985 62.2839C121.389 94.9161 95.4318 121.694 60.8473 122Z" fill="#F7F2EB"/>
<path d="M48.2197 65.9216C46.3264 55.3295 48.9679 43.6064 57.6408 33.4575C60.0991 30.5841 62.4505 27.6953 66.6953 29.8046C70.2378 31.5776 70.2378 34.7567 69.3827 38.211C67.2908 46.8467 70.65 52.3949 79.3076 54.1526C87.9652 55.9103 96.409 58.1724 95.9509 69.2383C95.4012 82.5204 84.7739 93.6933 72.7877 94.4881C69.5965 94.7021 66.3594 94.641 63.1529 94.4881C53.1975 94.2588 46.9524 90.4377 48.1739 79.2037C48.5557 75.566 48.2197 71.9131 48.2197 65.9216Z" fill="#9BBCDD"/>
<path d="M41.425 70.568C41.425 75.3673 41.3334 80.1513 41.425 84.9506C41.5166 89.7499 39.5469 93.0514 34.9357 93.4641C30.3244 93.8767 27.4385 90.3155 27.3011 85.99C26.9499 75.6272 27.0415 65.2338 27.3011 54.8557C27.408 50.7747 30.0954 48.314 34.386 48.3292C38.6766 48.3445 41.1044 50.8053 41.2265 55.0238C41.4097 60.2052 41.2265 65.3866 41.2265 70.5833L41.425 70.568Z" fill="#9BBCDD"/>
</svg>
