<svg width="122" height="122" viewBox="0 0 122 122" fill="none" xmlns="http://www.w3.org/2000/svg">
<path d="M122.076 60.9356C122.065 68.9704 120.456 76.923 117.342 84.332C114.228 91.741 109.671 98.4591 103.937 104.096C98.2017 109.734 91.4027 114.178 83.9339 117.172C76.4651 120.166 68.4753 121.649 60.4278 121.536C52.3813 121.518 44.4192 119.899 37.0063 116.775C29.5933 113.65 22.8781 109.083 17.2527 103.339C11.6273 97.5957 7.20435 90.7909 4.24215 83.322C1.27995 75.8532 -0.16216 67.8701 6.68503e-06 59.8388C0.0716657 51.8033 1.7487 43.8628 4.93287 36.4824C8.11705 29.1021 12.7444 22.4302 18.5438 16.8575C24.3432 11.2849 31.1982 6.92357 38.7072 4.02894C46.2162 1.1343 54.2283 -0.235417 62.2742 -1.6652e-06C94.8991 0.609355 121.68 26.4613 122.076 60.9356Z" fill="#F7F2EB"/>
<path d="M82.7525 26.4613H39.2323C37.4097 26.4653 35.6631 27.191 34.3758 28.479C33.0885 29.767 32.3655 31.5123 32.3655 33.3318V88.1739C32.3655 89.9934 33.0885 91.7386 34.3758 93.0267C35.6631 94.3147 37.4097 95.0403 39.2323 95.0444H82.7525C84.5777 95.0444 86.3282 94.3205 87.6188 93.032C88.9095 91.7436 89.6345 89.996 89.6345 88.1739V33.3318C89.6345 31.5096 88.9095 29.7621 87.6188 28.4736C86.3282 27.1852 84.5777 26.4613 82.7525 26.4613ZM61.0382 79.323H40.3767C39.654 79.2702 38.978 78.9464 38.4847 78.4165C37.9913 77.8867 37.717 77.19 37.717 76.4666C37.717 75.7432 37.9913 75.0465 38.4847 74.5167C38.978 73.9868 39.654 73.663 40.3767 73.6102H61.0382C61.4315 73.5816 61.8265 73.6341 62.1985 73.7647C62.5705 73.8952 62.9116 74.1009 63.2005 74.369C63.4893 74.637 63.7197 74.9616 63.8772 75.3225C64.0347 75.6835 64.116 76.0729 64.116 76.4666C64.116 76.8603 64.0347 77.2498 63.8772 77.6107C63.7197 77.9716 63.4893 78.2962 63.2005 78.5642C62.9116 78.8323 62.5705 79.038 62.1985 79.1685C61.8265 79.2991 61.4315 79.3517 61.0382 79.323ZM81.6538 63.632H40.453C39.6922 63.632 38.9625 63.3303 38.4245 62.7932C37.8865 62.2561 37.5842 61.5276 37.5842 60.7681C37.5842 60.0085 37.8865 59.28 38.4245 58.7429C38.9625 58.2058 39.6922 57.9041 40.453 57.9041H81.6538C82.4146 57.9041 83.1443 58.2058 83.6823 58.7429C84.2203 59.28 84.5226 60.0085 84.5226 60.7681C84.5226 61.5276 84.2203 62.2561 83.6823 62.7932C83.1443 63.3303 82.4146 63.632 81.6538 63.632ZM81.6538 47.9259H40.453C39.7303 47.8732 39.0543 47.5493 38.561 47.0195C38.0676 46.4896 37.7933 45.793 37.7933 45.0695C37.7933 44.3461 38.0676 43.6494 38.561 43.1196C39.0543 42.5897 39.7303 42.2659 40.453 42.2132H81.6538C82.0471 42.1845 82.4421 42.237 82.8141 42.3676C83.1862 42.4981 83.5273 42.7038 83.8161 42.9719C84.1049 43.2399 84.3353 43.5645 84.4928 43.9255C84.6504 44.2864 84.7317 44.6758 84.7317 45.0695C84.7317 45.4632 84.6504 45.8527 84.4928 46.2136C84.3353 46.5745 84.1049 46.8991 83.8161 47.1672C83.5273 47.4352 83.1862 47.6409 82.8141 47.7715C82.4421 47.902 82.0471 47.9546 81.6538 47.9259Z" fill="#9BBCDD"/>
</svg>
