<svg width="122" height="122" viewBox="0 0 122 122" fill="none" xmlns="http://www.w3.org/2000/svg">
<path d="M122 61.4435C121.955 69.5033 120.314 77.474 117.171 84.8935C114.029 92.3131 109.449 99.034 103.695 104.667C97.9419 110.299 91.1299 114.732 83.6543 117.707C76.1786 120.683 68.1879 122.142 60.1454 122C52.0968 121.946 44.1398 120.285 36.7392 117.114C29.3386 113.943 22.6428 109.326 17.0432 103.533C11.4435 97.7402 7.05226 90.8869 4.12596 83.3739C1.19967 75.861 -0.202973 67.839 -4.09782e-07 59.7766C0.106956 51.7092 1.82011 43.7443 5.03904 36.3489C8.25798 28.9535 12.9179 22.2763 18.7457 16.7089C24.5734 11.1415 31.4518 6.79581 38.9774 3.92663C46.5031 1.05744 54.5247 -0.277522 62.5719 -7.56234e-07C94.8499 0.734018 121.817 26.4705 122 61.4435Z" fill="#F7F2EB"/>
<path d="M81.5572 50.6473C79.1611 49.1181 80.031 46.5643 79.6342 44.4234C77.6655 34.4683 69.8822 26.9599 61.5036 26.9446C52.1026 26.9446 44.5176 33.8566 42.3047 44.3623C41.8621 46.4878 42.9762 49.2098 40.4886 50.6014C30.5839 56.1371 31.6065 65.557 31.7285 74.717C31.8812 87.7917 37.6347 94.0461 50.6985 94.9484C54.1171 95.193 57.5509 94.9484 62.3735 94.9484C66.372 94.8107 71.7441 95.1625 77.1466 94.0155C84.1669 92.4863 89.0811 88.0822 89.5236 81.5831C90.2867 70.7257 94.0563 58.4004 81.5572 50.6473ZM64.5407 81.0479C64.572 81.518 64.5066 81.9895 64.3486 82.4333C64.1906 82.8771 63.9434 83.2836 63.6221 83.6276C63.3009 83.9717 62.9126 84.246 62.4812 84.4336C62.0499 84.6211 61.5847 84.7178 61.1145 84.7178C60.6442 84.7178 60.1791 84.6211 59.7477 84.4336C59.3163 84.246 58.928 83.9717 58.6068 83.6276C58.2856 83.2836 58.0383 82.8771 57.8803 82.4333C57.7223 81.9895 57.6569 81.518 57.6883 81.0479V63.6608C57.6569 63.1907 57.7223 62.7192 57.8803 62.2754C58.0383 61.8317 58.2856 61.4251 58.6068 61.0811C58.928 60.737 59.3163 60.4627 59.7477 60.2752C60.1791 60.0876 60.6442 59.9909 61.1145 59.9909C61.5847 59.9909 62.0499 60.0876 62.4812 60.2752C62.9126 60.4627 63.3009 60.737 63.6221 61.0811C63.9434 61.4251 64.1906 61.8317 64.3486 62.2754C64.5066 62.7192 64.572 63.1907 64.5407 63.6608V81.0479ZM74.369 46.3349C73.2397 51.5648 68.2645 48.1547 64.9832 48.9652C63.574 49.134 62.1498 49.134 60.7406 48.9652C59.05 49.1183 57.3491 49.1183 55.6585 48.9652C52.8657 48.4605 48.9129 50.8614 47.5241 46.7631C46.3643 43.3683 47.9515 40.0805 50.1033 37.282C52.1852 34.5238 55.2369 32.6632 58.6385 32.0781C62.04 31.493 65.5363 32.2273 68.4171 34.1319C72.8276 36.9456 75.4221 41.2885 74.369 46.3043V46.3349Z" fill="#9BBCDD"/>
</svg>
