<svg width="120" height="120" viewBox="0 0 120 120" fill="none" xmlns="http://www.w3.org/2000/svg">
<path d="M120 0H0V120H120V0Z" fill="#FE2D00"/>
<path d="M91.179 103.893C88.479 105.654 85.818 107.31 82.893 108.585C64.353 116.667 45.675 116.478 29.313 104.418C27.4066 103.058 25.574 101.596 23.823 100.041C23.43 99.69 22.023 98.313 22.41 98.313H24.15L95.661 98.382H97.461C97.608 98.382 96.531 99.699 96.261 99.963C94.6962 101.432 92.9945 102.748 91.179 103.893Z" fill="#FEA997"/>
<path d="M91.086 43.026C90.5144 42.7149 90.0744 42.2078 89.847 41.598C89.3475 40.0789 88.3841 38.7547 87.0925 37.8118C85.8009 36.8689 84.2461 36.3549 82.647 36.342C79.065 36.363 76.995 38.493 77.079 42.066C77.097 42.813 77.19 43.566 76.986 44.301C76.782 45.036 76.386 45.501 75.603 45.375C74.82 45.249 74.775 44.652 74.811 44.001C74.853 43.254 74.811 42.501 74.853 41.757C74.892 40.857 74.664 40.323 73.605 40.44C72.963 40.512 72.372 40.284 72.333 39.504C72.3 38.775 72.765 38.4 73.443 38.34C75.219 38.187 76.116 36.84 77.343 35.745C75.147 34.923 72.72 35.499 71.673 37.131C71.1 38.031 70.452 38.283 69.444 38.214C67.602 38.085 66.216 38.931 65.52 40.614C65.148 41.514 64.557 41.892 63.696 42.168C61.812 42.768 60.816 44.106 60.777 46.068C60.7536 46.9613 60.5927 47.8457 60.3 48.69C59.9902 49.5444 60.002 50.4824 60.3333 51.3287C60.6645 52.1751 61.2925 52.8719 62.1 53.289C62.589 53.562 63.066 53.829 63.327 54.342C64.104 55.887 65.487 56.142 67.008 56.058C68.712 55.968 69.132 55.305 68.586 53.721C67.986 51.96 66.636 51.021 64.986 50.373C64.296 50.106 63.855 49.629 64.149 48.873C64.443 48.117 65.118 48.126 65.79 48.36C66.837 48.723 67.842 49.185 68.613 49.998C69.162 50.58 69.513 50.598 69.987 49.893C70.3777 49.3136 70.8506 48.7942 71.391 48.351C71.5006 48.2452 71.6312 48.1637 71.7743 48.1117C71.9175 48.0596 72.07 48.0383 72.2219 48.0491C72.3738 48.0598 72.5218 48.1024 72.6562 48.1741C72.7906 48.2457 72.9084 48.3449 73.002 48.465C73.44 48.969 73.302 49.506 72.807 49.908C71.469 50.997 71.238 52.506 71.178 54.084C71.079 56.667 73.218 58.284 75.678 57.435C77.115 56.946 78.324 56.052 79.512 55.137C80.775 54.159 82.011 53.145 83.454 52.437C84.4324 51.906 85.5816 51.7852 86.649 52.101C87.207 52.275 87.633 52.671 87.525 53.325C87.417 53.979 86.796 54.051 86.172 53.943C84.801 53.706 83.772 54.375 82.755 55.143C82.194 55.56 79.392 57.474 79.659 58.287C79.926 59.1 80.766 58.932 81.459 58.809C82.413 58.638 83.559 58.809 84.108 59.541C84.7987 60.6854 85.6202 61.7456 86.556 62.7C86.715 62.877 86.946 63.096 87.171 62.832C87.216 62.7497 87.2411 62.6579 87.2442 62.5641C87.2474 62.4704 87.2284 62.3772 87.189 62.292C86.808 61.542 86.343 60.831 85.989 60.069C85.389 58.752 85.647 58.293 87.105 58.122C87.783 58.044 88.398 57.936 88.575 57.141C88.836 55.941 90.075 55.761 90.81 55.041C93.003 52.941 92.652 50.598 89.91 49.383C89.0394 49.0012 88.114 48.7592 87.168 48.666C86.124 48.555 85.068 48.522 84.033 48.408C83.379 48.339 82.863 48.015 82.893 47.271C82.923 46.527 83.475 46.296 84.141 46.29C84.591 46.29 85.041 46.29 85.491 46.305C87.321 46.353 87.261 46.359 87.147 44.526C87.093 43.626 86.493 42.249 87.978 42.063C89.535 41.868 89.178 43.344 89.289 44.235C89.481 45.834 90.087 47.052 91.617 47.802C92.628 48.3 92.877 47.919 92.916 47.019C92.979 45.402 92.547 43.974 91.086 43.026Z" fill="#FEA897"/>
<path d="M49.2 35.742C46.62 34.752 44.262 35.46 41.979 37.914C40.311 39.714 40.287 39.714 38.679 37.935C37.131 36.228 35.352 35.055 32.916 35.403C27.909 36.12 25.527 41.73 28.638 45.738C32.151 50.265 35.856 54.645 39.438 59.112C40.2 60.063 40.683 59.712 41.292 58.974C44.784 54.681 48.315 50.415 51.792 46.113C52.776 44.895 53.499 43.527 53.427 41.877C53.4302 40.5458 53.0272 39.2453 52.272 38.1491C51.5167 37.0529 50.445 36.2132 49.2 35.742ZM34.389 50.175C33.738 50.193 31.989 48.39 32.049 47.736C32.0461 47.5985 32.0712 47.4619 32.1227 47.3344C32.1743 47.2069 32.2512 47.0913 32.3489 46.9944C32.4465 46.8976 32.5629 46.8217 32.6908 46.7712C32.8187 46.7208 32.9556 46.6969 33.093 46.701C33.867 46.662 35.388 48.291 35.388 49.251C35.379 49.8 35.055 50.16 34.398 50.175H34.389ZM39.636 55.824C39.442 55.9415 39.2143 55.9905 38.9891 55.9634C38.764 55.9362 38.5544 55.8343 38.394 55.674C37.3258 54.5694 36.3673 53.3638 35.532 52.074C35.4066 51.8841 35.3485 51.6577 35.367 51.4309C35.3855 51.2041 35.4795 50.9901 35.634 50.823C35.7674 50.6744 35.9406 50.5671 36.1331 50.5139C36.3256 50.4608 36.5293 50.4639 36.72 50.523C37.32 50.652 40.149 54.192 40.179 54.846C40.2033 55.0444 40.1648 55.2453 40.069 55.4207C39.9733 55.5961 39.825 55.7371 39.645 55.824H39.636ZM51.036 42.324C50.355 42.459 49.809 42.147 49.698 41.451C49.476 40.08 48.729 39.351 47.364 39.117C47.2255 39.103 47.0916 39.0594 46.9714 38.9892C46.8512 38.919 46.7475 38.8238 46.6673 38.71C46.5871 38.5962 46.5322 38.4665 46.5065 38.3297C46.4807 38.1929 46.4847 38.0522 46.518 37.917C46.626 37.26 47.118 37.068 47.718 37.017C49.629 36.906 51.837 39.06 51.825 41.043C51.822 41.622 51.708 42.186 51.045 42.315L51.036 42.324Z" fill="#FEA897"/>
<path d="M100.8 25.071C90.828 13.398 77.967 7.07101 62.664 6.34501C47.31 5.60701 33.879 10.677 22.764 21.366C13.338 30.429 7.99498 41.571 6.61798 54.6C6.10798 59.424 6.41999 64.23 6.98399 69.03L7.00499 69.15C7.60498 71.484 8.26499 73.809 8.83499 76.155C9.08699 77.199 9.59099 77.607 10.704 77.592C14.904 77.542 19.099 77.548 23.289 77.61C24.45 77.625 24.948 77.31 25.089 76.056C25.515 72.084 28.851 69.267 32.913 69.285C34.413 69.285 35.913 69.246 37.413 69.285C38.691 69.315 39.255 68.745 39.174 67.485C39.144 66.987 39.204 66.483 39.174 65.985C39.144 65.487 39.264 64.917 39.474 64.755C39.684 64.593 41.13 64.635 41.274 64.8C41.418 64.965 41.451 65.616 41.454 65.973C41.454 66.672 41.472 67.371 41.454 68.073C41.358 70.128 40.101 71.418 38.043 71.493C36.096 71.562 34.143 71.472 32.202 71.577C29.601 71.715 27.438 73.911 27.27 76.359C27.2512 76.5365 27.2512 76.7155 27.27 76.893C27.2916 77.0194 27.3435 77.1387 27.4214 77.2406C27.4992 77.3425 27.6007 77.424 27.717 77.478C27.7997 77.5161 27.8877 77.5414 27.978 77.553C28.0778 77.5607 28.1781 77.5607 28.278 77.553C28.626 77.532 28.977 77.553 29.328 77.553H90.9C92.892 77.553 93.372 76.848 92.529 74.997C91.566 72.897 89.955 71.592 87.54 71.541C85.794 71.502 84.045 71.541 82.296 71.49C79.965 71.436 78.696 70.164 78.663 67.845C78.642 66.597 78.621 65.349 78.663 64.101C78.684 63.588 78.45 62.415 79.368 62.793C79.71 62.931 80.916 63.216 80.919 63.717C80.919 65.148 80.829 67.05 81.009 68.478C81.0319 68.6596 81.1149 68.8283 81.2449 68.9572C81.3748 69.086 81.5442 69.1677 81.726 69.189C83.199 69.363 84.684 69.231 86.16 69.252C91.674 69.336 94.071 71.292 95.106 76.677C95.241 77.382 95.541 77.577 96.192 77.577C100.692 77.556 105.192 77.541 109.692 77.577C110.547 77.577 110.892 77.214 111.174 76.446C112.029 74.079 112.32 71.571 113.076 69.183L113.112 68.997C113.136 68.631 113.145 68.262 113.193 67.899C115.257 51.819 111.351 37.419 100.8 25.071ZM53.778 47.061C49.914 52.017 45.873 56.841 41.868 61.689C40.779 63.003 39.858 62.973 38.79 61.689C34.851 56.919 30.909 52.146 27.021 47.331C24.696 44.454 24.321 41.25 25.992 37.944C27.576 34.824 30.264 33.324 33.72 33.144C35.91 33.117 37.716 34.044 39.282 35.43C40.059 36.123 40.566 36.183 41.406 35.46C45.114 32.265 49.59 32.412 53.136 35.76C56.187 38.61 56.583 43.47 53.781 47.061H53.778ZM94.779 48.915C94.5119 49.8192 94.3864 50.7594 94.407 51.702C94.482 54.084 93.447 55.92 91.512 57.282C90.447 58.032 89.919 59.286 88.86 60.081C88.353 60.462 88.974 61.08 89.226 61.536C90.048 63.036 88.986 65.472 87.318 65.868C86.754 66.003 86.352 65.751 86.013 65.34C85.533 64.764 85.056 64.188 84.591 63.603C83.556 62.304 82.602 60.255 80.826 60.957C80.607 61.041 79.728 61.203 79.215 60.543C77.673 58.422 76.59 59.367 74.715 59.799C73.284 60.132 71.94 59.484 70.89 58.479C70.188 57.807 69.57 57.684 68.622 57.972C65.895 58.797 63.501 58.257 61.677 55.896C61.3909 55.5477 61.0542 55.2443 60.678 54.996C58.425 53.409 57.48 51.03 58.125 48.348C58.3504 47.3801 58.5088 46.3977 58.599 45.408C58.679 44.3538 59.0383 43.3399 59.6399 42.4705C60.2415 41.6011 61.0637 40.9075 62.022 40.461C62.8321 40.0841 63.5263 39.4967 64.032 38.76C65.118 37.146 66.624 36.141 68.601 35.988C68.9484 35.9829 69.291 35.9063 69.6074 35.7628C69.9239 35.6193 70.2073 35.412 70.44 35.154C71.802 33.609 73.65 33.255 75.54 33.105C76.092 33.156 76.668 33.054 77.07 33.27C79.092 34.359 81.27 33.966 83.409 34.215C87.213 34.665 90.309 36.468 91.809 40.287C91.9737 40.7044 92.2459 41.0708 92.598 41.349C95.01 43.38 95.598 45.966 94.782 48.915H94.779Z" fill="#FEA897"/>
<path d="M29.835 90.966V84.39L28.827 83.79H36.867L35.859 84.39V90.966L36.867 91.566H33.507L34.551 90.966V84.198H31.179V90.966L32.187 91.566H28.827L29.835 90.966Z" fill="white"/>
<path d="M38.163 90.846L41.139 83.598L44.211 90.978L45.147 91.578H42.015L42.819 91.038L42.171 89.478H39.231L38.631 90.918L39.555 91.578H37.071L38.163 90.846ZM39.399 89.046H41.979L40.671 85.914L39.399 89.046Z" fill="white"/>
<path d="M46.4789 90.966V84.39L45.4709 83.79H49.1789C50.8109 83.79 52.0469 84.57 52.0469 86.13C52.0469 87.69 50.8109 88.47 49.1789 88.47H47.8229V90.978L48.8309 91.578H45.4709L46.4789 90.966ZM47.8229 88.038H48.8789C49.7549 88.038 50.5109 87.438 50.5109 86.118C50.5109 84.798 49.7549 84.198 48.8789 84.198H47.8229V88.038Z" fill="white"/>
<path d="M53.7 90.966V84.39L52.692 83.79H58.908V86.43L57.66 84.21H55.044V87.33H56.412L57.312 86.094V88.974L56.412 87.75H55.032V91.17H57.756L59.076 88.95V91.59H52.695L53.7 90.966Z" fill="white"/>
<path d="M66.555 86.538C65.991 85.074 65.355 83.994 64.059 83.994C62.535 83.994 61.743 85.518 61.743 87.618C61.743 89.586 62.775 90.942 64.323 90.942C65.559 90.942 66.423 90.126 66.723 88.842C66.606 90.546 65.466 91.686 63.894 91.686C61.686 91.686 60.21 89.922 60.21 87.642C60.21 85.362 61.65 83.586 63.858 83.586C64.4848 83.5447 65.1046 83.7371 65.598 84.126L66.558 83.586L66.555 86.538Z" fill="white"/>
<path d="M73.959 86.538C73.395 85.074 72.759 83.994 71.463 83.994C69.939 83.994 69.147 85.518 69.147 87.618C69.147 89.586 70.179 90.942 71.727 90.942C72.963 90.942 73.827 90.126 74.127 88.842C74.007 90.546 72.867 91.686 71.295 91.686C69.087 91.686 67.611 89.922 67.611 87.642C67.611 85.362 69.051 83.586 71.259 83.586C71.8858 83.5447 72.5056 83.7371 72.999 84.126L73.959 83.586V86.538Z" fill="white"/>
<path d="M76.023 90.966V84.39L75.015 83.79H78.375L77.367 84.39V90.018L80.8469 84.618V84.39L79.839 83.79H83.196L82.191 84.39V90.966L83.196 91.566H79.839L80.8469 90.966V85.422L77.367 90.822V90.966L78.375 91.566H75.015L76.023 90.966Z" fill="white"/>
<path d="M91.2479 83.778L90.2429 84.378V90.954L91.2479 91.554H87.8999L88.9079 90.954V88.014H88.3079C87.5639 88.014 87.1079 88.458 86.7839 89.166L85.7759 91.566H83.5439L84.5399 90.93L85.1399 89.598C85.5119 88.818 85.9919 88.098 86.8199 87.858C85.4999 87.69 84.7559 87.054 84.7559 85.89C84.7559 84.33 86.0279 83.766 87.6239 83.766L91.2479 83.778ZM88.8989 84.198H87.8429C87.0029 84.198 86.2109 84.642 86.2109 85.902C86.2109 87.042 86.9669 87.606 87.8069 87.606H88.8989V84.198Z" fill="white"/>
</svg>
